<svg xmlns="http://www.w3.org/2000/svg" version="1.1" xmlns:xlink="http://www.w3.org/1999/xlink" xmlns:svgjs="http://svgjs.com/svgjs" width="1440" height="560" preserveAspectRatio="none" viewBox="0 0 1440 560"><g mask="url(&quot;#SvgjsMask1008&quot;)" fill="none"><rect width="1440" height="560" x="0" y="0" fill="rgba(17, 17, 17, 1)"></rect><path d="M0,467.015C88.741,476.35,179.42,443.792,250.776,390.215C319.664,338.491,354.961,256.688,386.751,176.623C417.189,99.965,446.073,19.088,430.278,-61.865C414.815,-141.116,350.402,-196.983,301.341,-261.114C248.787,-329.812,210.048,-412.902,132.471,-451.153C48.691,-492.462,-53.616,-512.938,-140.662,-479.05C-226.242,-445.733,-269.489,-353.572,-318.187,-275.71C-360.388,-208.235,-400.289,-137.581,-403.952,-58.08C-407.435,17.52,-369.836,85.702,-338.003,154.361C-306.352,222.629,-274.257,289.701,-219.018,340.798C-155.883,399.198,-85.531,458.018,0,467.015" fill="#0e0e0e"></path><path d="M1440 1094.6190000000001C1544.3319999999999 1110.1570000000002 1666.027 1103.982 1743.799 1032.721 1820.824 962.144 1805.98 839.6410000000001 1829.388 737.827 1847.839 657.575 1870.042 580.94 1866.5819999999999 498.66700000000003 1862.8020000000001 408.784 1850.132 320.448 1808.481 240.709 1758.589 145.19099999999997 1703.3899999999999 41.97799999999995 1605.035-2.0570000000000164 1502.941-47.76599999999996 1376.648-46.95500000000004 1276.284 2.4360000000000355 1180.175 49.733000000000004 1140.97 161.344 1086.0810000000001 253.32799999999997 1040.379 329.916 988.4159999999999 405.254 982.8 494.264 977.4010000000001 579.837 1020.28 657.419 1055.656 735.524 1091.143 813.873 1126.4279999999999 891.415 1189.276 950.135 1261.216 1017.3489999999999 1342.621 1080.116 1440 1094.6190000000001" fill="#141414"></path></g><defs><mask id="SvgjsMask1008"><rect width="1440" height="560" fill="#ffffff"></rect></mask></defs></svg>