<?xml version="1.0" standalone="no"?>
<!DOCTYPE svg PUBLIC "-//W3C//DTD SVG 20010904//EN"
 "http://www.w3.org/TR/2001/REC-SVG-20010904/DTD/svg10.dtd">
<svg version="1.0" xmlns="http://www.w3.org/2000/svg"
 width="854.000000pt" height="854.000000pt" viewBox="0 0 854.000000 854.000000"
 preserveAspectRatio="xMidYMid meet">
<metadata>
Created by potrace 1.14, written by Peter Selinger 2001-2017
</metadata>
<g transform="translate(0.000000,854.000000) scale(0.100000,-0.100000)"
fill="#000000" stroke="none">
<path d="M3925 8336 c-93 -30 -123 -46 -191 -106 -100 -88 -155 -207 -159
-344 -5 -154 35 -254 144 -364 96 -97 183 -133 326 -137 153 -5 241 28 358
131 56 49 131 188 142 261 32 214 -70 425 -250 515 -97 49 -128 57 -220 62
-63 3 -95 -1 -150 -18z"/>
<path d="M4883 7436 c-88 -29 -143 -61 -204 -118 -135 -127 -186 -323 -129
-502 28 -90 107 -198 181 -248 l36 -24 -367 -3 -367 -2 -6 31 c-13 64 -124
194 -208 243 -80 47 -146 64 -248 64 -200 1 -347 -88 -438 -266 -24 -47 -43
-95 -43 -107 0 -24 -9 -28 -80 -39 -25 -4 -52 -9 -61 -10 -9 -2 -32 -6 -50 -9
-135 -21 -328 -75 -398 -111 -63 -32 -137 -104 -149 -146 -12 -46 -13 -674 0
-723 5 -21 18 -51 29 -66 16 -20 18 -32 10 -51 -5 -14 -8 -56 -6 -95 2 -66 29
-136 659 -1677 361 -885 665 -1625 676 -1646 32 -63 146 -168 225 -206 95 -47
195 -63 380 -60 170 3 252 18 346 65 73 37 179 142 214 211 14 27 111 259 216
516 105 258 197 482 204 498 7 17 47 113 89 215 41 102 242 595 447 1095 365
892 372 911 374 984 2 41 -2 87 -7 102 -8 23 -5 36 15 71 l25 43 0 360 c0 275
-3 366 -13 385 -27 53 -82 100 -155 134 -70 32 -265 87 -356 100 -22 4 -51 9
-64 11 -28 6 -89 14 -140 19 -19 3 -51 7 -70 10 -19 3 -66 8 -105 11 -38 3
-85 8 -103 12 l-32 5 42 21 c24 12 71 50 105 84 135 136 181 309 129 486 -25
85 -64 146 -140 221 -55 54 -171 114 -232 121 -135 15 -160 14 -231 -9z"/>
<path d="M4042 1119 c-138 -51 -237 -152 -296 -299 -27 -67 -29 -206 -4 -300
41 -156 174 -283 351 -335 112 -32 279 -6 382 62 98 64 189 193 214 303 14 62
7 193 -14 265 -29 101 -133 224 -233 274 -134 68 -271 78 -400 30z"/>
</g>
</svg>
